name processed_emg_signals
nRows=90
nColumns=7
 
endheader
time	RGLTMED	RRF	RADDLONG	RBF	RTA	RGM
1.7499999999999811	0.0120834165396758	0.0270015538811598	0.017719805569627	0.140662383073772	0.0829377815569112	0.0195867779802276
1.750999999999981	0.0120604773071496	0.0268227061558451	0.0177759006806868	0.1371252295649393	0.082763517881372	0.0209286700317676
1.751999999999981	0.0120386361711313	0.0266474624179757	0.017831383055068	0.1335863832122972	0.082801329317304	0.0223235427446504
1.7529999999999808	0.0120179159151535	0.0264759948632634	0.0178862132385062	0.1300478447567875	0.0830511706168386	0.0237710170054817
1.7539999999999807	0.0119983389885046	0.0263084685193558	0.0179403518951565	0.1265115728916684	0.0835128020303016	0.0252706548194854
1.7549999999999806	0.011979927489578	0.026145041013826	0.0179937598912035	0.1229794831614199	0.0841857900681549	0.026821958907196
1.7559999999999805	0.0119627031470494	0.0259858623545131	0.0180463983772284	0.1194534470264765	0.0850695084505956	0.0284243723617792
1.7569999999999804	0.0119466872987286	0.0258310747226351	0.018098228868945	0.1159352910937446	0.0861631392445443	0.0300772783689471
1.7579999999999802	0.0119319008679144	0.0256808122790508	0.0181492133259867	0.1124267965123725	0.0874656741876946	0.031779999991458
1.7589999999999801	0.0119183643370765	0.0255352009840274	0.0181993142285113	0.1089296985337721	0.0889759161992485	0.0335318000202287
1.75999999999998	0.011906097718686	0.0253943584308189	0.018248494651455	0.1054456862344382	0.0906924810769273	0.0353318808941146
1.76099999999998	0.0118951205230322	0.025258393693328	0.0182967183363057	0.1019764023996779	0.092613799379782	0.037179384690457
1.7619999999999798	0.0118854517229196	0.0251274071880664	0.0183439497602714	0.0985234435659535	0.094738118496234	0.0390733931885513
1.7629999999999797	0.0118771097151846	0.0250014905505919	0.01839015420271	0.0950883602191631	0.0970635048966837	0.0410129280082445
1.7639999999999796	0.0118701122790274	0.0248807265265679	0.0184352978086731	0.0916726571458157	0.099587846569962	0.0429969508258955
1.7649999999999795	0.0118644765311873	0.0247651888776016	0.0184793476493852	0.0882777939337161	0.1023088556428786	0.0450243636699182
1.7659999999999794	0.011860218878008	0.0246549423020415	0.0185222717794815	0.0849051856184491	0.1052240711821197	0.0470940092980822
1.7669999999999793	0.0118573549644495	0.0245500423709475	0.0185640392908093	0.0815562034716733	0.1083308621777269	0.049204671658657
1.7679999999999791	0.0118558996201177	0.0244505354794443	0.0186046203626025	0.0782321759269642	0.1116264307073445	0.0513550764374103
1.768999999999979	0.0118558668024006	0.0243564588136534	0.0186439863078118	0.0749343896387261	0.1151078152803344	0.0535438916923996
1.769999999999979	0.0118572695368457	0.0242678403333993	0.0186821096153518	0.0716640906694644	0.1187718943607997	0.0557697285784484
1.7709999999999788	0.0118601198549731	0.0241846987708825	0.0187189639879833	0.0684224858005186	0.1226153900684927	0.0580311421631784
1.7719999999999787	0.0118644287297966	0.0241070436455313	0.0187545243755068	0.0652107439611702	0.1266348720565696	0.0603266323364303
1.7729999999999786	0.0118702060093861	0.0240348752952343	0.0187887670029039	0.0620299977708503	0.1308267615651432	0.0626546448148757
1.7739999999999785	0.01187746034885	0.023968184924133	0.0188216693930642	0.0588813451889837	0.1351873356496115	0.0650135722435721
1.7749999999999784	0.0118861991411443	0.0239069546671359	0.0188532103837931	0.0557658512668084	0.1397127315827172	0.0674017553961522
1.7759999999999783	0.0118964284471288	0.0238511576712782	0.0188833701389251	0.0526845499953175	0.1443989514292417	0.0698174844752839
1.7769999999999782	0.0119081529253182	0.0238007581940361	0.0189121301535209	0.0496384462432856	0.1492418667920923	0.0722590005149422
1.777999999999978	0.011921375761784	0.0237557117186599	0.0189394732532544	0.0466285177791559	0.1542372237283339	0.074724496885917
1.778999999999978	0.0119360986006642	0.0237159650865413	0.0189653835881976	0.0436557173703762	0.1593806478334612	0.0772121209057947
1.7799999999999778	0.0119523214757197	0.0236814566465736	0.0189898466212827	0.040720974953598	0.1646676494919665	0.0797199755544189
1.7809999999999777	0.0119700427433504	0.0236521164213938	0.0190128491117918	0.0378251998689771	0.1700936292920286	0.0822461212955877
1.7819999999999776	0.0119892590174624	0.0236278662903198	0.0190343790942525	0.034969283151654	0.1756538836019171	0.0847885780054748
1.7829999999999775	0.0120099651065453	0.0236086201887202	0.0190544258531466	0.032154099873336	0.181343610305463	0.0873453270079906
1.7839999999999774	0.0120321539532967	0.0235942843234682	0.0190729798938305	0.0293805115267593	0.1871579146936638	0.0899143132170199
1.7849999999999773	0.0120558165770871	0.0235847574040535	0.0190900329100889	0.0266493684456681	0.1930918155091347	0.0924934473851763
1.7859999999999772	0.0120809420195395	0.023579930888846	0.0191055777487839	0.0239615122528195	0.1991402511396777	0.095080608458431
1.786999999999977	0.0121075172934547	0.023579689245933	0.0191196083721028	0.021317778328399	0.2052980859567613	0.0976736460356764
1.787999999999977	0.0121355273352898	0.0235839102278714	0.0191321198179527	0.0187189982911204	0.2115601167942198	0.100270382931979
1.7889999999999768	0.0121649549613632	0.0235924651596354	0.0191431081590485	0.016166002484189	0.2179210795620668	0.1028686178439658
1.7899999999999767	0.0121957808279446	0.0236052192389635	0.0191525704612424	0.0136596224582125	0.2243756559899868	0.1054661281154594
1.7909999999999766	0.0122279833953756	0.0236220318482523	0.0191605047416347	0.0112006934430725	0.2309184804947732	0.1080606726011608
1.7919999999999765	0.0122615388963761	0.0236427568770716	0.01916690992698	0.0087900568007061	0.2375441471657316	0.1106499946258457
1.7929999999999764	0.0122964213086912	0.02366724305434	0.0191717858128759	0.0064285624507071	0.2442472168618989	0.1132318250362054
1.7939999999999763	0.0123326023322491	0.023695334289147	0.0191751330241806	0.0041170712606361	0.2510222244149291	0.1158038853420804
1.7949999999999762	0.012370051370993	0.0237268700192002	0.0191769529770608	0.0018564573929323	0.257863685931617	0.1183638909434422
1.795999999999976	0.0124087355195494	0.0237616855658542	0.0191772478430426	0.0003523893996699	0.2647661061901365	0.1209095544390544
1.796999999999976	0.0124486195548885	0.0237996124946712	0.0191760205154021	0.0025085615382862	0.2717239861241358	0.1234385890123357
1.7979999999999758	0.0124896659331261	0.0238404789804403	0.0191732745782186	0.0046111314496033	0.278731830388811	0.1259487118895316
1.7989999999999757	0.0125318347916182	0.0238841101755607	0.0191690142783702	0.0066591494731002	0.2857841550029828	0.1284376478648975
1.7999999999999756	0.0125750839564897	0.0239303285806713	0.0191632445007145	0.0086516418515285	0.2928754950609719	0.1309031328871792
1.8009999999999755	0.0126193689557243	0.0239789544163936	0.0191559707466647	0.0105876088122178	0.3000004125076763	0.1333429177012579
1.8019999999999754	0.0126646430379274	0.0240298059950745	0.0191471991163228	0.0124660227465484	0.3071535039696841	0.13575477153839
1.8029999999999753	0.0127108571968375	0.0240827000914802	0.0191369362943076	0.0142858264947062	0.3143294086344955	0.1381364858480247
1.8039999999999752	0.0127579602016441	0.0241374523115094	0.01912518953938	0.0160459317426248	0.3215228161691185	0.1404858780637376
1.804999999999975	0.0128058986331419	0.0241938774581248	0.0191119666779257	0.0177452175378183	0.3287284746685208	0.1428007953953866
1.805999999999975	0.0128546169257546	0.0242517898937868	0.0190972761013232	0.0193825289306315	0.3359411986236854	0.1450791186392109
1.8069999999999748	0.0129040574154648	0.0243110038987385	0.0190811267671759	0.0209566757472229	0.3431558768983613	0.1473187659973152
1.8079999999999747	0.0129541603937082	0.0243713340245174	0.0190635282043357	0.0224664315003444	0.3503674807029674	0.1495176968978933
1.8089999999999746	0.0130048641672845	0.0244325954421067	0.0190444905215983	0.0239105324437076	0.3575710715534678	0.1516739158076433
1.8099999999999745	0.0130561051243541	0.0244946042841727	0.0190240244198992	0.0252876767754742	0.3647618092022957	0.153785476027959
1.8109999999999744	0.0131078178066001	0.0245571779808754	0.0190021412077963	0.0265965239962021	0.3719349595275555	0.1558504834664932
1.8119999999999743	0.0131599349876445	0.0246201355888	0.0189788528199881	0.0278356944263914	0.3790859023658761	0.1578671003755188
1.8129999999999742	0.0132123877578036	0.0246832981126323	0.0189541718385813	0.0290037688886095	0.3862101392735049	0.1598335490481838
1.813999999999974	0.0132651056152448	0.0247464888192861	0.0189281115167847	0.0300992885590135	0.3933033011995031	0.1617481154633367
1.814999999999974	0.0133180165635749	0.0248095335442439	0.0189006858046618	0.0311207549929333	0.4003611560541046	0.1636091528690822
1.8159999999999739	0.0133710472158595	0.0248722609898764	0.0188719093765186	0.0320666303290314	0.4073796161543414	0.1654150852946784
1.8169999999999737	0.0134241229050477	0.0249345030154936	0.0188417976594536	0.0329353376764013	0.4143547455279988	0.167164410979796
1.8179999999999736	0.0134771678007433	0.0249960949188515	0.0188103668625444	0.0337252616887935	0.4212827670558496	0.1688557057095929
1.8189999999999735	0.0135301050322463	0.0250568757088276	0.018777634006122	0.0344347493299442	0.4281600694309685	0.170487626043515
1.8199999999999734	0.0135828568177491	0.0251166883689268	0.0187436169505662	0.0350621108336901	0.4349832139127675	0.1720589124252149
1.8209999999999733	0.0136353445995329	0.0251753801112458	0.0187083344240428	0.0356056208622002	0.4417489408522793	0.1735683921605099
1.8219999999999732	0.0136874891849735	0.0252328026204708	0.0186718060485926	0.0360635198652644	0.448454175964102	0.175014982249867
1.822999999999973	0.0137392108931147	0.0252888122874734	0.0186340523639466	0.0364340156432381	0.455096036319346	0.1763976920615032
1.823999999999973	0.0137904297065375	0.0253432704320981	0.0185950948484311	0.0367152851159478	0.4616718360330002	0.1777156258307359
1.8249999999999729	0.013841065428208	0.025396043514794	0.0185549559363365	0.0369054762996377	0.4681790916186319	0.1789679849706896
1.8259999999999728	0.0138910378429506	0.0254470033368053	0.0185136590311904	0.0370027104937887	0.4746155269833857	0.1801540701788728
1.8269999999999726	0.0139402668831562	0.0254960272286683	0.0184712285145105	0.0370050846793759	0.4809790780367984	0.1812732833235663
1.8279999999999725	0.0139886727982987	0.0255429982267939	0.0184276897497727	0.0369106741298015	0.4872678968876414	0.1823251290934581
1.8289999999999724	0.0140361763277888	0.0255878052379037	0.018383069081483	0.0367175352353654	0.4934803556034055	0.1833092163935663
1.8299999999999723	0.0140826988766613	0.025630343191074	0.0183373938293533	0.0364237085416712	0.4996150495069073	0.1842252594701684
1.8309999999999722	0.014128162693544	0.0256705131770819	0.0182906922776403	0.0360272220018222	0.5056707999840816	0.1850730787472529
1.831999999999972	0.0141724910503268	0.0257082225746834	0.0182429936597359	0.035526094441651	0.5116466567769238	0.1858526013571944
1.832999999999972	0.0142156084229024	0.0257433851633961	0.0181943281381209	0.0349183392365019	0.5175418997362343	0.1865638613492891
1.8339999999999719	0.0142574406723272	0.0257759212223162	0.0181447267798329	0.0342019681971407	0.5233560400101812	0.187206999561761
1.8349999999999718	0.0142979152257046	0.025805757614518	0.0180942215276619	0.0333749956611459	0.5290888206459817	0.1877822631461794
1.8359999999999717	0.014336961256069	0.0258328278566128	0.0180428451673709	0.0324354427847681	0.5347402165825885	0.1882900047382028
1.8369999999999715	0.0143745098605048	0.0258570721730839	0.0179906312913059	0.0313813420289492	0.5403104340121251	0.1887306812747171
1.8379999999999714	0.014410494235707	0.0258784375350133	0.0179376142587923	0.0302107418320766	0.5457999090876111	0.1891048524634828
1.8389999999999713	0.0144448498501712	0.0258968776827963	0.0178838291537146	0.0289217114610878	0.5512093059547724	0.1894131789160872
